<svg xmlns="http://www.w3.org/2000/svg" viewBox="0 0 18.87 18.87"><defs><style>.cls-1{fill:none;}.cls-2{fill:gray;}</style></defs><title>mackros</title><g id="Layer_2" data-name="Layer 2"><g id="Layer_2-2" data-name="Layer 2"><rect class="cls-1" width="18.87" height="18.87"/><path class="cls-2" d="M14.66,9.47a2.12,2.12,0,0,1,1.09-1.84,7.29,7.29,0,0,0-.53-1.29,2.1,2.1,0,0,1-2.61-2.61,6.6,6.6,0,0,0-1.29-.53,2.11,2.11,0,0,1-3.69,0,6.6,6.6,0,0,0-1.29.53A2.1,2.1,0,0,1,3.73,6.34,6.6,6.6,0,0,0,3.2,7.63a2.11,2.11,0,0,1,0,3.69,6.6,6.6,0,0,0,.53,1.29,2.1,2.1,0,0,1,2.61,2.61,7.29,7.29,0,0,0,1.29.53,2.11,2.11,0,0,1,3.69,0,7.29,7.29,0,0,0,1.29-.53,2.1,2.1,0,0,1,2.61-2.61,7.29,7.29,0,0,0,.53-1.29A2.12,2.12,0,0,1,14.66,9.47ZM9.47,12.05a2.58,2.58,0,1,1,2.58-2.58A2.57,2.57,0,0,1,9.47,12.05Z"/></g></g></svg>