<svg xmlns="http://www.w3.org/2000/svg" xmlns:xlink="http://www.w3.org/1999/xlink" viewBox="0 0 60 60"><defs><style>.cls-1{fill:none;}.cls-2{fill:url(#linear-gradient);}.cls-3{fill:#4d4d4d;}</style><linearGradient id="linear-gradient" x1="13.14" y1="28.3" x2="46.86" y2="28.3" gradientUnits="userSpaceOnUse"><stop offset="0" stop-color="#fff"/><stop offset="1" stop-color="#f15a24"/></linearGradient></defs><title>13_attent_active</title><g id="Layer_2" data-name="Layer 2"><g id="Layer_2-2" data-name="Layer 2"><rect class="cls-1" width="60" height="60"/><path class="cls-2" d="M14.35,43.59a1.21,1.21,0,0,1-1-.59,1.2,1.2,0,0,1,0-1.19L29,13.63a1.2,1.2,0,0,1,2.1,0L46.7,41.81a1.2,1.2,0,0,1,0,1.19,1.21,1.21,0,0,1-1,.59Z"/><path class="cls-3" d="M30,14a.17.17,0,0,1,.17.1L45.83,42.29a.2.2,0,0,1,0,.2.17.17,0,0,1-.17.1H14.35a.17.17,0,0,1-.17-.1.2.2,0,0,1,0-.2L29.83,14.11A.17.17,0,0,1,30,14m0-2a2.18,2.18,0,0,0-1.92,1.13L12.42,41.32a2.2,2.2,0,0,0,1.93,3.27h31.3a2.2,2.2,0,0,0,1.93-3.27L31.92,13.14A2.18,2.18,0,0,0,30,12Z"/><path class="cls-3" d="M31.3,31.89a.9.9,0,0,1-.38.77,1.55,1.55,0,0,1-.91.27,1.59,1.59,0,0,1-.93-.26.88.88,0,0,1-.38-.78V22a.9.9,0,0,1,.4-.76A1.51,1.51,0,0,1,30,21a1.55,1.55,0,0,1,.91.27.9.9,0,0,1,.38.77Zm0,6.08a.9.9,0,0,1-.38.77A1.55,1.55,0,0,1,30,39a1.59,1.59,0,0,1-.93-.26A.88.88,0,0,1,28.7,38V36a.85.85,0,0,1,.38-.75A1.66,1.66,0,0,1,30,35a1.6,1.6,0,0,1,.89.26.83.83,0,0,1,.4.75Z"/></g></g></svg>