<svg xmlns="http://www.w3.org/2000/svg" viewBox="0 0 60 60"><defs><style>.cls-1{fill:#ccc;}.cls-2,.cls-3{fill:none;}.cls-2{stroke:#ccc;stroke-miterlimit:10;stroke-width:2px;}</style></defs><title>09_cam_</title><g id="Layer_2" data-name="Layer 2"><g id="Layer_2-2" data-name="Layer 2"><path class="cls-1" d="M47.92,13.83V17.5H12.08V13.83H47.92m2-2H10.08V19.5H49.92V11.83Z"/><path class="cls-2" d="M12.56,18.73a17.44,17.44,0,1,0,34.88,0"/><path class="cls-2" d="M24.47,18.73H36.09a0,0,0,0,1,0,0v8.49a5.17,5.17,0,0,1-5.17,5.17H29.64a5.17,5.17,0,0,1-5.17-5.17V18.73A0,0,0,0,1,24.47,18.73Z"/><circle class="cls-1" cx="30.28" cy="25.56" r="4.25"/><rect class="cls-3" width="60" height="60"/></g></g></svg>