<svg xmlns="http://www.w3.org/2000/svg" xmlns:xlink="http://www.w3.org/1999/xlink" viewBox="0 0 60 60"><defs><style>.cls-1{stroke-linecap:round;fill:url(#New_Gradient_Swatch_13);stroke:url(#linear-gradient);}.cls-1,.cls-2{stroke-linejoin:round;stroke-width:2px;}.cls-2{stroke-linecap:square;fill:url(#New_Gradient_Swatch_13-2);stroke:url(#linear-gradient-2);}.cls-3{fill:#4d4d4d;}.cls-4{fill:url(#New_Gradient_Swatch_13-3);}.cls-5{fill:url(#linear-gradient-3);}.cls-6{fill:none;}</style><linearGradient id="New_Gradient_Swatch_13" x1="12.56" y1="27.45" x2="47.44" y2="27.45" gradientUnits="userSpaceOnUse"><stop offset="0" stop-color="#fff"/><stop offset="1" stop-color="#78d2f7"/></linearGradient><linearGradient id="linear-gradient" x1="11.56" y1="27.45" x2="48.44" y2="27.45" gradientUnits="userSpaceOnUse"><stop offset="0" stop-color="#46e6f3"/><stop offset="1" stop-color="#2498c5"/></linearGradient><linearGradient id="New_Gradient_Swatch_13-2" x1="24.47" y1="25.56" x2="36.09" y2="25.56" xlink:href="#New_Gradient_Swatch_13"/><linearGradient id="linear-gradient-2" x1="23.47" y1="25.56" x2="37.09" y2="25.56" xlink:href="#linear-gradient"/><linearGradient id="New_Gradient_Swatch_13-3" x1="10.08" y1="15.67" x2="49.92" y2="15.67" xlink:href="#New_Gradient_Swatch_13"/><linearGradient id="linear-gradient-3" x1="10.08" y1="15.67" x2="49.92" y2="15.67" xlink:href="#linear-gradient"/></defs><title>cam_blue2</title><g id="Layer_2" data-name="Layer 2"><g id="Layer_2-2" data-name="Layer 2"><path class="cls-1" d="M12.56,18.73a17.44,17.44,0,1,0,34.88,0"/><path class="cls-2" d="M24.47,18.73H36.09a0,0,0,0,1,0,0v8.49a5.17,5.17,0,0,1-5.17,5.17H29.64a5.17,5.17,0,0,1-5.17-5.17V18.73A0,0,0,0,1,24.47,18.73Z"/><circle class="cls-3" cx="30.28" cy="25.56" r="4.25"/><rect class="cls-4" x="10.08" y="11.83" width="39.83" height="7.66"/><path class="cls-5" d="M47.92,13.83V17.5H12.08V13.83H47.92m2-2H10.08V19.5H49.92V11.83Z"/><rect class="cls-6" width="60" height="60"/></g></g></svg>