<svg xmlns="http://www.w3.org/2000/svg" xmlns:xlink="http://www.w3.org/1999/xlink" viewBox="0 0 60 60"><defs><style>.cls-1,.cls-4{fill:#fff;}.cls-2{fill:url(#New_Gradient_Swatch_2);}.cls-3,.cls-5{fill:#ccc;}.cls-4,.cls-5{stroke:#ccc;}.cls-4{stroke-linecap:round;stroke-linejoin:round;stroke-width:1.5px;}.cls-5{stroke-miterlimit:10;stroke-width:0.5px;}.cls-6{fill:none;}</style><linearGradient id="New_Gradient_Swatch_2" x1="23.19" y1="21.63" x2="34.04" y2="21.63" gradientUnits="userSpaceOnUse"><stop offset="0" stop-color="#fff"/><stop offset="1" stop-color="#f3d70d"/></linearGradient></defs><title>19_head_</title><g id="Layer_2" data-name="Layer 2"><g id="Layer_2-2" data-name="Layer 2"><path class="cls-1" d="M44.12,31.69a1.53,1.53,0,0,1-.43,1,2.1,2.1,0,0,1-1.29.59.49.49,0,0,0,0,.12l0,1.27a1.29,1.29,0,0,1-.57.94,1.91,1.91,0,0,1-.43,1.59c-.26.34-.36.48-.25.87s.29,2-.54,2.56c-.3.28-1.3.92-3.85.6l-.38-.05c-1.11-.17-2.08-.24-2.7.53a43,43,0,0,0-2.51,5.47.68.68,0,0,1-.67.57h-.11a.69.69,0,0,1-.56-.79c.2-1.15-8.59-7.74-8.93-7.89a.69.69,0,0,1-.35-.9c.05-.11,1-2.55-1.22-5.8-.32-.42-3.3-4.42-3.4-6.87,0-.05-.85-4.16,3.31-8.8,2-2.24,4.75-4.33,11.16-4.38A12.83,12.83,0,0,1,40,16.11a10,10,0,0,1,2.86,8.53,3.19,3.19,0,0,1-.36,1.05,1.91,1.91,0,0,0-.15,2C44.2,31,44.14,31.49,44.12,31.69Z"/><path class="cls-2" d="M30.15,27.07c0-.86,1.29-1.68,2-2.21A4.73,4.73,0,0,0,34,20.39a5,5,0,0,0-4.39-4.12,7.82,7.82,0,0,0-1-.08,6.11,6.11,0,0,0-1,.08,5,5,0,0,0-4.39,4.12,4.73,4.73,0,0,0,1.85,4.47c.7.53,2,1.35,2,2.21"/><path class="cls-3" d="M30.48,31.09H26.75a.59.59,0,0,0-.58.59.58.58,0,0,0,.58.58h3.73a.58.58,0,0,0,.58-.58.59.59,0,0,0-.58-.59Z"/><path class="cls-3" d="M30.48,29H26.75a.59.59,0,0,0-.58.59.58.58,0,0,0,.58.58h3.73a.58.58,0,0,0,.58-.58.59.59,0,0,0-.58-.59Z"/><path class="cls-3" d="M29.26,33.19H28a.59.59,0,0,0-.58.59.58.58,0,0,0,.58.58h1.29a.58.58,0,0,0,.58-.58.59.59,0,0,0-.58-.59Z"/><path class="cls-4" d="M30.15,27.07c0-.86,1.29-1.68,2-2.21A4.73,4.73,0,0,0,34,20.39a5,5,0,0,0-4.39-4.12,7.82,7.82,0,0,0-1-.08,6.11,6.11,0,0,0-1,.08,5,5,0,0,0-4.39,4.12,4.73,4.73,0,0,0,1.85,4.47c.7.53,2,1.35,2,2.21"/><path class="cls-5" d="M44.12,31.69a1.53,1.53,0,0,1-.43,1,2.1,2.1,0,0,1-1.29.59.49.49,0,0,0,0,.12l0,1.27a1.29,1.29,0,0,1-.57.94,1.91,1.91,0,0,1-.43,1.59c-.26.34-.36.48-.25.87s.29,2-.54,2.56c-.3.28-1.3.92-3.85.6l-.38-.05c-1.11-.17-2.08-.24-2.7.53a43,43,0,0,0-2.51,5.47.68.68,0,0,1-.67.57h-.11a.69.69,0,0,1-.56-.79,41.22,41.22,0,0,1,2.72-6c1.22-1.56,3-1.29,4-1.14l.35.05c2.15.26,2.76-.25,2.76-.25a.36.36,0,0,1,.14-.11,3,3,0,0,0,0-1.14,2,2,0,0,1,.42-1.9,1.47,1.47,0,0,0,.27-.52.93.93,0,0,1,0-1.19.77.77,0,0,1,.27-.17.88.88,0,0,0,.23-.1l0-1a1.57,1.57,0,0,1,.25-1.17.91.91,0,0,1,.61-.37,1.23,1.23,0,0,0,.79-.2s.06-.15.06-.19a25.27,25.27,0,0,0-1.63-3.24,3.21,3.21,0,0,1,.11-3.2,2.31,2.31,0,0,0,.23-.59A8.72,8.72,0,0,0,39,17.05a11.32,11.32,0,0,0-8.43-3.41h-.11c-6.17,0-8.48,2-10.16,3.93-3.66,4.09-3,7.58-3,7.72.08,1.84,2.3,5.12,3.15,6.24,2.74,3.94,1.43,7,1.37,7.15a.68.68,0,0,1-1.25-.55c.05-.11,1-2.55-1.22-5.8-.32-.42-3.3-4.42-3.4-6.87,0-.05-.85-4.16,3.31-8.8,2-2.24,4.75-4.33,11.16-4.38A12.83,12.83,0,0,1,40,16.11a10,10,0,0,1,2.86,8.53,3.19,3.19,0,0,1-.36,1.05,1.91,1.91,0,0,0-.15,2C44.2,31,44.14,31.49,44.12,31.69Z"/><rect class="cls-6" width="60" height="60"/></g></g></svg>