<svg xmlns="http://www.w3.org/2000/svg" xmlns:xlink="http://www.w3.org/1999/xlink" viewBox="0 0 60 60"><defs><style>.cls-1{fill:url(#New_Gradient_Swatch_5);}.cls-2{fill:url(#New_Gradient_Swatch_5-2);}.cls-3{fill:#4d4d4d;}.cls-4,.cls-6,.cls-7{fill:none;}.cls-4{stroke:gray;stroke-miterlimit:10;}.cls-4,.cls-7{stroke-linecap:round;stroke-width:2px;}.cls-5{fill:gray;}.cls-7{stroke:#fff;stroke-linejoin:round;}</style><linearGradient id="New_Gradient_Swatch_5" x1="10.91" y1="27.99" x2="38.89" y2="27.99" gradientUnits="userSpaceOnUse"><stop offset="0" stop-color="#fff"/><stop offset="1" stop-color="#ffcb56"/></linearGradient><linearGradient id="New_Gradient_Swatch_5-2" x1="21.04" y1="23.31" x2="49.01" y2="23.31" xlink:href="#New_Gradient_Swatch_5"/></defs><title>08_lamps_active</title><g id="Layer_2" data-name="Layer 2"><g id="Layer_2-2" data-name="Layer 2"><path class="cls-1" d="M38.89,24.49a14,14,0,1,0-22.67,11,8.14,8.14,0,0,1,3.08,6.39h0a3.64,3.64,0,0,0,3.63,3.63h5.33a3.63,3.63,0,0,0,3.63-3.63V40.72a8,8,0,0,1,2.49-5.95A14,14,0,0,0,38.89,24.49Z"/><path class="cls-2" d="M49,19.82a14,14,0,1,0-22.66,11,8.15,8.15,0,0,1,3.08,6.39h0a3.63,3.63,0,0,0,3.63,3.63h5.33A3.64,3.64,0,0,0,42,37.17V36.05a8.09,8.09,0,0,1,2.48-6A13.93,13.93,0,0,0,49,19.82Z"/><path class="cls-3" d="M29.64,46.87H21.55a.85.85,0,1,0,0,1.7h8.09a.85.85,0,0,0,0-1.7Z"/><path class="cls-3" d="M29.59,49.67H21.5a.85.85,0,1,0,0,1.7h8.09a.85.85,0,1,0,0-1.7Z"/><path class="cls-3" d="M28.24,52.47H23a.85.85,0,1,0,0,1.7h5.29a.85.85,0,0,0,0-1.7Z"/><path class="cls-4" d="M34.25,40.37h4.22a3.63,3.63,0,0,0,3.63-3.62v-.28a8.05,8.05,0,0,1,2.48-6A14,14,0,0,0,27.68,8.39"/><path class="cls-3" d="M39.85,42.62h-7.3v1.7h7.3a.85.85,0,1,0,0-1.7Z"/><path class="cls-3" d="M39.79,45.42H32.55v1.7h7.24a.85.85,0,0,0,0-1.7Z"/><path class="cls-3" d="M38.45,48.22h-5.9v1.7h5.9a.85.85,0,1,0,0-1.7Z"/><path class="cls-5" d="M24.9,12.51A12,12,0,0,1,33,33.3a10,10,0,0,0-3.13,7.42v1.13a1.63,1.63,0,0,1-1.63,1.63H22.93a1.63,1.63,0,0,1-1.63-1.63,10.09,10.09,0,0,0-3.84-8,12,12,0,0,1,6.06-21.31,12.75,12.75,0,0,1,1.38-.07m0-2a14.44,14.44,0,0,0-1.6.09,14,14,0,0,0-7.08,24.86,8.14,8.14,0,0,1,3.08,6.39,3.64,3.64,0,0,0,3.63,3.63h5.33a3.63,3.63,0,0,0,3.63-3.63V40.72a8,8,0,0,1,2.49-5.95A14,14,0,0,0,24.9,10.51Z"/><circle class="cls-6" cx="35.66" cy="19.61" r="13.35"/><path class="cls-7" d="M39.39,10a10.6,10.6,0,0,1,6.77,9.5"/><path class="cls-7" d="M34.44,9.23a10.44,10.44,0,0,1,1.25,0"/><path class="cls-7" d="M30.4,10.53a8.3,8.3,0,0,1,.78-.41"/><rect class="cls-6" width="60" height="60"/></g></g></svg>