<svg xmlns="http://www.w3.org/2000/svg" xmlns:xlink="http://www.w3.org/1999/xlink" viewBox="0 0 60 60"><defs><style>.cls-1{fill:url(#New_Gradient_Swatch_5);}.cls-2{fill:gray;}.cls-3,.cls-4{fill:none;}.cls-3{stroke:#fff;stroke-linecap:round;stroke-linejoin:round;stroke-width:2px;}</style><linearGradient id="New_Gradient_Swatch_5" x1="40.74" y1="38.32" x2="20.78" y2="14.53" gradientUnits="userSpaceOnUse"><stop offset="0" stop-color="#fff"/><stop offset="1" stop-color="#ffcb56"/></linearGradient></defs><title>07_lamp_active</title><g id="Layer_2" data-name="Layer 2"><g id="Layer_2-2" data-name="Layer 2"><path class="cls-1" d="M28,43.71a2.63,2.63,0,0,1-2.63-2.63,9.08,9.08,0,0,0-3.46-7.17,13,13,0,0,1,6.58-23.09A14.68,14.68,0,0,1,30,10.74a13,13,0,0,1,8.8,22.52A9.12,9.12,0,0,0,36,40v1.12a2.63,2.63,0,0,1-2.62,2.63Z"/><path class="cls-2" d="M30,11.74a12,12,0,0,1,8.12,20.79A10.07,10.07,0,0,0,35,40v1.12a1.63,1.63,0,0,1-1.62,1.63H28a1.64,1.64,0,0,1-1.63-1.63,10.08,10.08,0,0,0-3.84-8,12,12,0,0,1,6.06-21.3A12.92,12.92,0,0,1,30,11.74m0-2a14.44,14.44,0,0,0-1.6.09,14,14,0,0,0-7.08,24.86,8.15,8.15,0,0,1,3.08,6.39A3.64,3.64,0,0,0,28,44.71h5.34A3.63,3.63,0,0,0,37,41.08V40a8.06,8.06,0,0,1,2.49-6A14,14,0,0,0,30,9.74Z"/><path class="cls-2" d="M34.74,46.11H26.65a.85.85,0,1,0,0,1.7h8.09a.85.85,0,1,0,0-1.7Z"/><path class="cls-2" d="M34.69,48.9H26.6a.86.86,0,0,0,0,1.71h8.09a.86.86,0,0,0,0-1.71Z"/><path class="cls-2" d="M33.35,51.7h-5.3a.85.85,0,0,0,0,1.7h5.3a.85.85,0,0,0,0-1.7Z"/><path class="cls-3" d="M22.33,17.06a10.6,10.6,0,0,1,11.29-2.93"/><path class="cls-3" d="M19.88,21.41a10.09,10.09,0,0,1,.4-1.17"/><path class="cls-3" d="M19.64,25.65a8.58,8.58,0,0,1-.1-.87"/><rect class="cls-4" width="60" height="60"/></g></g></svg>