<svg xmlns="http://www.w3.org/2000/svg" viewBox="0 0 60 60"><defs><style>.cls-1{fill:#ccc;}.cls-2,.cls-3{fill:none;}.cls-2{stroke:#ccc;stroke-linecap:round;stroke-linejoin:round;stroke-width:2px;}</style></defs><title>08_lamps_</title><g id="Layer_2" data-name="Layer 2"><g id="Layer_2-2" data-name="Layer 2"><path class="cls-1" d="M24.9,12.29A12,12,0,0,1,33,33.08a10.07,10.07,0,0,0-3.13,7.43v1.12a1.63,1.63,0,0,1-1.63,1.63H22.93a1.63,1.63,0,0,1-1.63-1.63,10.08,10.08,0,0,0-3.84-8,12,12,0,0,1,6.06-21.31,12.77,12.77,0,0,1,1.38-.08m0-2a14.44,14.44,0,0,0-1.6.09,14,14,0,0,0-7.08,24.87,8.13,8.13,0,0,1,3.08,6.38,3.63,3.63,0,0,0,3.63,3.63h5.33a3.62,3.62,0,0,0,3.63-3.63V40.51a8.06,8.06,0,0,1,2.49-6A14,14,0,0,0,24.9,10.29Z"/><path class="cls-1" d="M29.64,46.66H21.55a.85.85,0,0,0,0,1.7h8.09a.85.85,0,0,0,0-1.7Z"/><path class="cls-1" d="M29.59,49.46H21.5a.85.85,0,1,0,0,1.7h8.09a.85.85,0,1,0,0-1.7Z"/><path class="cls-1" d="M28.24,52.26H23A.85.85,0,1,0,23,54h5.29a.85.85,0,0,0,0-1.7Z"/><path class="cls-2" d="M34.25,40.16h4.22a3.63,3.63,0,0,0,3.63-3.63v-.27a8.05,8.05,0,0,1,2.48-6A14,14,0,0,0,33.51,6.13a13.76,13.76,0,0,0-5.83,2.05"/><path class="cls-1" d="M39.85,42.41h-7.3v1.7h7.3a.85.85,0,0,0,0-1.7Z"/><path class="cls-1" d="M39.79,45.21H32.55v1.7h7.24a.85.85,0,0,0,0-1.7Z"/><path class="cls-1" d="M38.45,48h-5.9v1.7h5.9a.85.85,0,1,0,0-1.7Z"/><rect class="cls-3" width="60" height="60"/></g></g></svg>