<svg xmlns="http://www.w3.org/2000/svg" viewBox="0 0 60 60"><defs><style>.cls-1{fill:#ccc;}.cls-2{fill:none;}</style></defs><title>07_lamp_</title><g id="Layer_2" data-name="Layer 2"><g id="Layer_2-2" data-name="Layer 2"><path class="cls-1" d="M30,12.17A12,12,0,0,1,38.12,33,10.06,10.06,0,0,0,35,40.38v1.13a1.63,1.63,0,0,1-1.62,1.63H28a1.64,1.64,0,0,1-1.63-1.63,10.06,10.06,0,0,0-3.84-8,12,12,0,0,1,6.06-21.31A12.88,12.88,0,0,1,30,12.17m0-2a14.44,14.44,0,0,0-1.6.09,14,14,0,0,0-7.08,24.86,8.14,8.14,0,0,1,3.08,6.39A3.64,3.64,0,0,0,28,45.14h5.34A3.63,3.63,0,0,0,37,41.51V40.38a8,8,0,0,1,2.49-6A14,14,0,0,0,30,10.17Z"/><path class="cls-1" d="M34.74,46.54H26.65a.85.85,0,1,0,0,1.7h8.09a.85.85,0,1,0,0-1.7Z"/><path class="cls-1" d="M34.69,49.33H26.6a.85.85,0,0,0,0,1.7h8.09a.85.85,0,0,0,0-1.7Z"/><path class="cls-1" d="M33.35,52.13h-5.3a.85.85,0,0,0,0,1.7h5.3a.85.85,0,0,0,0-1.7Z"/><rect class="cls-2" width="60" height="60"/></g></g></svg>