<svg xmlns="http://www.w3.org/2000/svg" xmlns:xlink="http://www.w3.org/1999/xlink" viewBox="0 0 60 60"><defs><style>.cls-1{fill:url(#New_Gradient_Swatch_13);}.cls-2{fill:url(#New_Gradient_Swatch_12);}.cls-3,.cls-5,.cls-7{fill:none;}.cls-3{stroke-linecap:round;stroke:url(#New_Gradient_Swatch_12-2);}.cls-3,.cls-5{stroke-linejoin:round;stroke-width:2px;}.cls-4{fill:url(#New_Gradient_Swatch_13-2);}.cls-5{stroke-linecap:square;stroke:url(#New_Gradient_Swatch_12-3);}.cls-6{fill:url(#New_Gradient_Swatch_13-3);}.cls-8{fill:url(#New_Gradient_Swatch_13-4);}.cls-9{fill:url(#New_Gradient_Swatch_12-4);}</style><linearGradient id="New_Gradient_Swatch_13" x1="24.47" y1="40.63" x2="3.22" y2="19.37" gradientUnits="userSpaceOnUse"><stop offset="0" stop-color="#fff"/><stop offset="1" stop-color="#78d2f7"/></linearGradient><linearGradient id="New_Gradient_Swatch_12" x1="25.2" y1="37.95" x2="2.49" y2="22.05" gradientUnits="userSpaceOnUse"><stop offset="0" stop-color="#46f2ff"/><stop offset="1" stop-color="#5fc1ff"/></linearGradient><linearGradient id="New_Gradient_Swatch_12-2" x1="40.45" y1="42.28" x2="36.55" y2="39.55" xlink:href="#New_Gradient_Swatch_12"/><linearGradient id="New_Gradient_Swatch_13-2" x1="38.5" y1="40.91" x2="38.5" y2="40.91" xlink:href="#New_Gradient_Swatch_13"/><linearGradient id="New_Gradient_Swatch_12-3" x1="46.35" y1="49.4" x2="29.8" y2="37.81" xlink:href="#New_Gradient_Swatch_12"/><linearGradient id="New_Gradient_Swatch_13-3" x1="27.45" y1="43.6" x2="48.7" y2="43.6" xlink:href="#New_Gradient_Swatch_13"/><linearGradient id="New_Gradient_Swatch_13-4" x1="51.68" y1="41.48" x2="24.47" y2="14.27" xlink:href="#New_Gradient_Swatch_13"/><linearGradient id="New_Gradient_Swatch_12-4" x1="53.85" y1="38.92" x2="22.3" y2="16.83" xlink:href="#New_Gradient_Swatch_12"/></defs><title>10_comp_active</title><g id="Layer_2" data-name="Layer 2"><g id="Layer_2-2" data-name="Layer 2"><rect class="cls-1" x="7.04" y="15.55" width="13.6" height="28.91"/><path class="cls-2" d="M18.65,17.55v24.9H9V17.55h9.61m2-2H7v28.9H20.65V15.55Z"/><line class="cls-3" x1="38.5" y1="38.5" x2="38.5" y2="43.32"/><line class="cls-4" x1="38.5" y1="38.5" x2="38.5" y2="43.32"/><line class="cls-5" x1="48.7" y1="43.6" x2="27.45" y2="43.6"/><line class="cls-6" x1="48.7" y1="43.6" x2="27.45" y2="43.6"/><rect class="cls-7" width="60" height="60"/><rect class="cls-8" x="23.2" y="15.55" width="29.76" height="24.66"/><path class="cls-9" d="M51,17.55V38.2H25.2V17.55H51m2-2H23.2V40.2H53V15.55Z"/></g></g></svg>