<svg xmlns="http://www.w3.org/2000/svg" viewBox="0 0 60 60"><defs><style>.cls-1{fill:#ccc;}.cls-2,.cls-3,.cls-4,.cls-5,.cls-6{fill:none;}.cls-2,.cls-3,.cls-4,.cls-5{stroke:#ccc;stroke-miterlimit:10;}.cls-2{stroke-width:2px;}.cls-4{stroke-width:4px;}.cls-5{stroke-width:3px;}</style></defs><title>11_piano_</title><g id="Layer_2" data-name="Layer 2"><g id="Layer_2-2" data-name="Layer 2"><path class="cls-1" d="M46.7,17.55V39.44H13.3V17.55H46.7m2-2H11.3V41.44H48.7V15.55Z"/><line class="cls-2" x1="12.47" y1="26.09" x2="48.7" y2="26.09"/><line class="cls-3" x1="19.3" y1="40.56" x2="19.3" y2="27.01"/><line class="cls-3" x1="26.38" y1="40.56" x2="26.38" y2="27.01"/><line class="cls-3" x1="33.47" y1="40.56" x2="33.47" y2="27.01"/><line class="cls-3" x1="40.55" y1="40.56" x2="40.55" y2="27.01"/><line class="cls-3" x1="36.23" y1="22.74" x2="44.86" y2="22.74"/><line class="cls-3" x1="15.14" y1="22.74" x2="23.77" y2="22.74"/><line class="cls-3" x1="36.23" y1="19.86" x2="44.86" y2="19.86"/><line class="cls-3" x1="15.14" y1="19.86" x2="23.77" y2="19.86"/><line class="cls-4" x1="25.69" y1="21.3" x2="34.31" y2="21.3"/><line class="cls-5" x1="19.3" y1="34.36" x2="19.3" y2="26.09"/><line class="cls-5" x1="26.38" y1="34.36" x2="26.38" y2="26.09"/><line class="cls-5" x1="33.47" y1="34.36" x2="33.47" y2="26.09"/><line class="cls-5" x1="40.55" y1="34.36" x2="40.55" y2="26.09"/><rect class="cls-6" width="60" height="60"/></g></g></svg>