<svg xmlns="http://www.w3.org/2000/svg" xmlns:xlink="http://www.w3.org/1999/xlink" viewBox="0 0 60 60"><defs><style>.cls-1,.cls-12,.cls-13,.cls-14,.cls-15,.cls-16,.cls-17,.cls-2,.cls-3,.cls-4,.cls-5,.cls-6,.cls-7,.cls-8,.cls-9{fill:none;}.cls-1,.cls-10,.cls-12,.cls-13,.cls-14,.cls-15,.cls-16,.cls-17,.cls-2,.cls-3,.cls-4,.cls-5,.cls-6,.cls-7,.cls-8{stroke-miterlimit:10;}.cls-1{stroke:url(#New_Gradient_Swatch_12);}.cls-2{stroke:url(#New_Gradient_Swatch_12-2);}.cls-3{stroke:url(#New_Gradient_Swatch_12-3);}.cls-4{stroke:url(#New_Gradient_Swatch_12-4);}.cls-5,.cls-6,.cls-7,.cls-8{stroke-width:3px;}.cls-5{stroke:url(#New_Gradient_Swatch_12-5);}.cls-6{stroke:url(#New_Gradient_Swatch_12-6);}.cls-7{stroke:url(#New_Gradient_Swatch_12-7);}.cls-8{stroke:url(#New_Gradient_Swatch_12-8);}.cls-10{fill:#fff;stroke:url(#New_Gradient_Swatch_12-9);}.cls-11{fill:url(#New_Gradient_Swatch_12-10);}.cls-12{stroke-width:2px;stroke:url(#New_Gradient_Swatch_12-11);}.cls-13{stroke:url(#New_Gradient_Swatch_12-12);}.cls-14{stroke:url(#New_Gradient_Swatch_12-13);}.cls-15{stroke:url(#New_Gradient_Swatch_12-14);}.cls-16{stroke:url(#New_Gradient_Swatch_12-15);}.cls-17{stroke-width:4px;stroke:url(#New_Gradient_Swatch_12-16);}</style><linearGradient id="New_Gradient_Swatch_12" x1="22.82" y1="36.25" x2="15.78" y2="31.32" gradientUnits="userSpaceOnUse"><stop offset="0" stop-color="#46f2ff"/><stop offset="1" stop-color="#5fc1ff"/></linearGradient><linearGradient id="New_Gradient_Swatch_12-2" x1="29.9" y1="36.25" x2="22.86" y2="31.32" xlink:href="#New_Gradient_Swatch_12"/><linearGradient id="New_Gradient_Swatch_12-3" x1="36.98" y1="36.25" x2="29.95" y2="31.32" xlink:href="#New_Gradient_Swatch_12"/><linearGradient id="New_Gradient_Swatch_12-4" x1="44.07" y1="36.25" x2="37.03" y2="31.32" xlink:href="#New_Gradient_Swatch_12"/><linearGradient id="New_Gradient_Swatch_12-5" x1="22.25" y1="32.29" x2="16.35" y2="28.16" xlink:href="#New_Gradient_Swatch_12"/><linearGradient id="New_Gradient_Swatch_12-6" x1="29.33" y1="32.29" x2="23.43" y2="28.16" xlink:href="#New_Gradient_Swatch_12"/><linearGradient id="New_Gradient_Swatch_12-7" x1="36.41" y1="32.29" x2="30.52" y2="28.16" xlink:href="#New_Gradient_Swatch_12"/><linearGradient id="New_Gradient_Swatch_12-8" x1="43.5" y1="32.29" x2="37.6" y2="28.16" xlink:href="#New_Gradient_Swatch_12"/><linearGradient id="New_Gradient_Swatch_12-9" x1="11.97" y1="21.35" x2="47.94" y2="21.35" xlink:href="#New_Gradient_Swatch_12"/><linearGradient id="New_Gradient_Swatch_12-10" x1="48.63" y1="41.54" x2="11.37" y2="15.45" xlink:href="#New_Gradient_Swatch_12"/><linearGradient id="New_Gradient_Swatch_12-11" x1="13.37" y1="26.09" x2="46.62" y2="26.09" xlink:href="#New_Gradient_Swatch_12"/><linearGradient id="New_Gradient_Swatch_12-12" x1="36.23" y1="22.74" x2="44.86" y2="22.74" xlink:href="#New_Gradient_Swatch_12"/><linearGradient id="New_Gradient_Swatch_12-13" x1="15.14" y1="22.74" x2="23.77" y2="22.74" xlink:href="#New_Gradient_Swatch_12"/><linearGradient id="New_Gradient_Swatch_12-14" x1="36.23" y1="19.86" x2="44.86" y2="19.86" xlink:href="#New_Gradient_Swatch_12"/><linearGradient id="New_Gradient_Swatch_12-15" x1="15.14" y1="19.86" x2="23.77" y2="19.86" xlink:href="#New_Gradient_Swatch_12"/><linearGradient id="New_Gradient_Swatch_12-16" x1="25.69" y1="21.3" x2="34.31" y2="21.3" xlink:href="#New_Gradient_Swatch_12"/></defs><title>11_piano_active</title><g id="Layer_2" data-name="Layer 2"><g id="Layer_2-2" data-name="Layer 2"><line class="cls-1" x1="19.3" y1="40.56" x2="19.3" y2="27.01"/><line class="cls-2" x1="26.38" y1="40.56" x2="26.38" y2="27.01"/><line class="cls-3" x1="33.47" y1="40.56" x2="33.47" y2="27.01"/><line class="cls-4" x1="40.55" y1="40.56" x2="40.55" y2="27.01"/><line class="cls-5" x1="19.3" y1="34.36" x2="19.3" y2="26.09"/><line class="cls-6" x1="26.38" y1="34.36" x2="26.38" y2="26.09"/><line class="cls-7" x1="33.47" y1="34.36" x2="33.47" y2="26.09"/><line class="cls-8" x1="40.55" y1="34.36" x2="40.55" y2="26.09"/><rect class="cls-9" width="60" height="60"/><rect class="cls-10" x="12.47" y="16.6" width="34.97" height="9.49"/><path class="cls-11" d="M46.7,17.55V39.44H13.3V17.55H46.7m2-2H11.3V41.44H48.7V15.55Z"/><line class="cls-12" x1="13.37" y1="26.09" x2="46.62" y2="26.09"/><line class="cls-13" x1="36.23" y1="22.74" x2="44.86" y2="22.74"/><line class="cls-14" x1="15.14" y1="22.74" x2="23.77" y2="22.74"/><line class="cls-15" x1="36.23" y1="19.86" x2="44.86" y2="19.86"/><line class="cls-16" x1="15.14" y1="19.86" x2="23.77" y2="19.86"/><line class="cls-17" x1="25.69" y1="21.3" x2="34.31" y2="21.3"/></g></g></svg>