<svg xmlns="http://www.w3.org/2000/svg" viewBox="0 0 60 60"><defs><style>.cls-1,.cls-2{fill:none;}.cls-1{stroke:#72b5cb;stroke-linecap:round;stroke-linejoin:round;stroke-width:2px;}</style></defs><title>17_cond_active</title><g id="Layer_2" data-name="Layer 2"><g id="Layer_2-2" data-name="Layer 2"><line class="cls-1" x1="12.5" y1="30" x2="30.21" y2="30"/><polyline class="cls-1" points="15.26 26 19.26 30 15.26 34"/><line class="cls-1" x1="47.5" y1="30" x2="29.79" y2="30"/><polyline class="cls-1" points="44.74 34 40.74 30 44.74 26"/><line class="cls-1" x1="21.46" y1="14.84" x2="30.31" y2="30.18"/><polyline class="cls-1" points="26.3 15.23 24.84 20.7 19.37 19.24"/><line class="cls-1" x1="38.96" y1="45.16" x2="30.1" y2="29.82"/><polyline class="cls-1" points="34.11 44.77 35.58 39.3 41.05 40.76"/><line class="cls-1" x1="21.46" y1="45.16" x2="30.31" y2="29.82"/><polyline class="cls-1" points="19.37 40.76 24.84 39.3 26.3 44.77"/><line class="cls-1" x1="38.96" y1="14.84" x2="30.1" y2="30.18"/><polyline class="cls-1" points="41.05 19.24 35.58 20.7 34.11 15.23"/><polygon class="cls-1" points="30.21 21.71 33.1 24.98 37.38 25.86 36 30 37.38 34.14 33.1 35.02 30.21 38.29 27.31 35.02 23.03 34.14 24.41 30 23.03 25.86 27.31 24.98 30.21 21.71"/><rect class="cls-2" width="60" height="60"/></g></g></svg>