<svg xmlns="http://www.w3.org/2000/svg" viewBox="0 0 60 60"><defs><style>.cls-1,.cls-3{fill:none;}.cls-1{stroke:#ccc;stroke-linecap:round;stroke-linejoin:round;stroke-width:2px;}.cls-2{fill:#ccc;}</style></defs><title>16_sun_</title><g id="Layer_2" data-name="Layer 2"><g id="Layer_2-2" data-name="Layer 2"><path class="cls-1" d="M48.18,30l-5.71-3.38a12.65,12.65,0,0,1,0,6.76Z"/><path class="cls-1" d="M30,17.07a13,13,0,0,1,3.38.46L30,11.82l-3.38,5.71A13,13,0,0,1,30,17.07Z"/><path class="cls-1" d="M41.2,23.57l1.65-6.42L36.43,18.8A13,13,0,0,1,41.2,23.57Z"/><path class="cls-1" d="M23.57,18.8l-6.42-1.65,1.65,6.42A13,13,0,0,1,23.57,18.8Z"/><path class="cls-1" d="M30,42.93a13,13,0,0,1-3.38-.46L30,48.18l3.38-5.71A13,13,0,0,1,30,42.93Z"/><path class="cls-1" d="M36.43,41.2l6.42,1.65L41.2,36.43A13,13,0,0,1,36.43,41.2Z"/><path class="cls-1" d="M18.8,36.43l-1.65,6.42,6.42-1.65A13,13,0,0,1,18.8,36.43Z"/><path class="cls-1" d="M17.07,30a13,13,0,0,1,.46-3.38L11.82,30l5.71,3.38A13,13,0,0,1,17.07,30Z"/><path class="cls-2" d="M30,22.87A7.13,7.13,0,1,1,22.87,30,7.14,7.14,0,0,1,30,22.87m0-2A9.13,9.13,0,1,0,39.13,30,9.13,9.13,0,0,0,30,20.87Z"/><rect class="cls-3" width="60" height="60"/></g></g></svg>