<svg xmlns="http://www.w3.org/2000/svg" xmlns:xlink="http://www.w3.org/1999/xlink" viewBox="0 0 60 60"><defs><style>.cls-1,.cls-2,.cls-3,.cls-4,.cls-5,.cls-6,.cls-7,.cls-8{stroke-linecap:round;stroke-linejoin:round;stroke-width:2px;}.cls-1{fill:url(#New_Gradient_Swatch_5);stroke:url(#linear-gradient);}.cls-2{fill:url(#New_Gradient_Swatch_5-2);stroke:url(#linear-gradient-2);}.cls-3{fill:url(#New_Gradient_Swatch_5-3);stroke:url(#linear-gradient-3);}.cls-4{fill:url(#New_Gradient_Swatch_5-4);stroke:url(#linear-gradient-4);}.cls-5{fill:url(#New_Gradient_Swatch_5-5);stroke:url(#linear-gradient-5);}.cls-6{fill:url(#New_Gradient_Swatch_5-6);stroke:url(#linear-gradient-6);}.cls-7{fill:url(#New_Gradient_Swatch_5-7);stroke:url(#linear-gradient-7);}.cls-8{fill:url(#New_Gradient_Swatch_5-8);stroke:url(#linear-gradient-8);}.cls-9{fill:url(#New_Gradient_Swatch_5-9);}.cls-10{fill:url(#linear-gradient-9);}.cls-11{fill:none;}</style><linearGradient id="New_Gradient_Swatch_5" x1="42.47" y1="30" x2="48.18" y2="30" gradientUnits="userSpaceOnUse"><stop offset="0" stop-color="#fff"/><stop offset="1" stop-color="#ffcb56"/></linearGradient><linearGradient id="linear-gradient" x1="49.18" y1="30" x2="41.47" y2="30" gradientUnits="userSpaceOnUse"><stop offset="0" stop-color="#fdd089"/><stop offset="1" stop-color="#ffcb56"/></linearGradient><linearGradient id="New_Gradient_Swatch_5-2" x1="26.62" y1="14.68" x2="33.38" y2="14.68" xlink:href="#New_Gradient_Swatch_5"/><linearGradient id="linear-gradient-2" x1="34.38" y1="14.68" x2="25.62" y2="14.68" xlink:href="#linear-gradient"/><linearGradient id="New_Gradient_Swatch_5-3" x1="36.43" y1="20.36" x2="42.85" y2="20.36" xlink:href="#New_Gradient_Swatch_5"/><linearGradient id="linear-gradient-3" x1="43.85" y1="20.36" x2="35.43" y2="20.36" xlink:href="#linear-gradient"/><linearGradient id="New_Gradient_Swatch_5-4" x1="17.15" y1="20.36" x2="23.57" y2="20.36" xlink:href="#New_Gradient_Swatch_5"/><linearGradient id="linear-gradient-4" x1="24.57" y1="20.36" x2="16.15" y2="20.36" xlink:href="#linear-gradient"/><linearGradient id="New_Gradient_Swatch_5-5" x1="26.62" y1="45.32" x2="33.38" y2="45.32" xlink:href="#New_Gradient_Swatch_5"/><linearGradient id="linear-gradient-5" x1="34.38" y1="45.32" x2="25.62" y2="45.32" xlink:href="#linear-gradient"/><linearGradient id="New_Gradient_Swatch_5-6" x1="36.43" y1="39.64" x2="42.85" y2="39.64" xlink:href="#New_Gradient_Swatch_5"/><linearGradient id="linear-gradient-6" x1="43.85" y1="39.64" x2="35.43" y2="39.64" xlink:href="#linear-gradient"/><linearGradient id="New_Gradient_Swatch_5-7" x1="17.15" y1="39.64" x2="23.57" y2="39.64" xlink:href="#New_Gradient_Swatch_5"/><linearGradient id="linear-gradient-7" x1="24.57" y1="39.64" x2="16.15" y2="39.64" xlink:href="#linear-gradient"/><linearGradient id="New_Gradient_Swatch_5-8" x1="11.82" y1="30" x2="17.53" y2="30" xlink:href="#New_Gradient_Swatch_5"/><linearGradient id="linear-gradient-8" x1="18.53" y1="30" x2="10.82" y2="30" xlink:href="#linear-gradient"/><linearGradient id="New_Gradient_Swatch_5-9" x1="20.87" y1="30" x2="39.13" y2="30" xlink:href="#New_Gradient_Swatch_5"/><linearGradient id="linear-gradient-9" x1="39.13" y1="30" x2="20.87" y2="30" xlink:href="#linear-gradient"/></defs><title>16_sun_active</title><g id="Layer_2" data-name="Layer 2"><g id="Layer_2-2" data-name="Layer 2"><path class="cls-1" d="M48.18,30l-5.71-3.38a12.65,12.65,0,0,1,0,6.76Z"/><path class="cls-2" d="M30,17.07a13,13,0,0,1,3.38.46L30,11.82l-3.38,5.71A13,13,0,0,1,30,17.07Z"/><path class="cls-3" d="M41.2,23.57l1.65-6.42L36.43,18.8A13,13,0,0,1,41.2,23.57Z"/><path class="cls-4" d="M23.57,18.8l-6.42-1.65,1.65,6.42A13,13,0,0,1,23.57,18.8Z"/><path class="cls-5" d="M30,42.93a13,13,0,0,1-3.38-.46L30,48.18l3.38-5.71A13,13,0,0,1,30,42.93Z"/><path class="cls-6" d="M36.43,41.2l6.42,1.65L41.2,36.43A13,13,0,0,1,36.43,41.2Z"/><path class="cls-7" d="M18.8,36.43l-1.65,6.42,6.42-1.65A13,13,0,0,1,18.8,36.43Z"/><path class="cls-8" d="M17.07,30a13,13,0,0,1,.46-3.38L11.82,30l5.71,3.38A13,13,0,0,1,17.07,30Z"/><circle class="cls-9" cx="30" cy="30" r="9.13"/><path class="cls-10" d="M30,22.87A7.13,7.13,0,1,1,22.87,30,7.14,7.14,0,0,1,30,22.87m0-2A9.13,9.13,0,1,0,39.13,30,9.13,9.13,0,0,0,30,20.87Z"/><rect class="cls-11" width="60" height="60"/></g></g></svg>