<svg xmlns="http://www.w3.org/2000/svg" xmlns:xlink="http://www.w3.org/1999/xlink" viewBox="0 0 60 60"><defs><style>.cls-1,.cls-4{fill:none;}.cls-2{fill:url(#New_Gradient_Swatch_20);}.cls-3{fill:#4d4d4d;}.cls-4{stroke:#4d4d4d;stroke-miterlimit:10;stroke-width:1.5px;stroke-dasharray:0.99 0.99;}</style><linearGradient id="New_Gradient_Swatch_20" x1="22.39" y1="22.48" x2="37.61" y2="37.7" gradientUnits="userSpaceOnUse"><stop offset="0" stop-color="#fff"/><stop offset="1" stop-color="#ffcb56"/></linearGradient></defs><title>tempo_</title><g id="Layer_2" data-name="Layer 2"><g id="Layer_2-2" data-name="Layer 2"><rect class="cls-1" width="60" height="60"/><circle class="cls-2" cx="30" cy="30.09" r="10.76"/><path class="cls-3" d="M27.6,27.83h.21V26.69c0-.3,0-.54,0-.71a1,1,0,0,1,.14-.45.82.82,0,0,1,.32-.32.9.9,0,0,1,.46-.12.92.92,0,0,1,.65.27.85.85,0,0,1,.25.44,4.57,4.57,0,0,1,.05.74v1.29h.69A.89.89,0,0,1,31,28a.64.64,0,0,1,.21.49.54.54,0,0,1-.3.53,1.85,1.85,0,0,1-.87.16H29.7v3.48a5.89,5.89,0,0,0,0,.68.7.7,0,0,0,.17.39.57.57,0,0,0,.44.15,2.32,2.32,0,0,0,.45-.06,2.34,2.34,0,0,1,.44-.06.55.55,0,0,1,.41.18.6.6,0,0,1,.19.46.78.78,0,0,1-.5.7,3.4,3.4,0,0,1-1.44.24,2.44,2.44,0,0,1-1.34-.3,1.42,1.42,0,0,1-.6-.82,5.9,5.9,0,0,1-.14-1.41V29.2h-.25a.93.93,0,0,1-.63-.2.64.64,0,0,1-.21-.49A.62.62,0,0,1,27,28,1,1,0,0,1,27.6,27.83Z"/><path class="cls-3" d="M36.24,28.32a2.71,2.71,0,0,1-.15.91A1.94,1.94,0,0,1,35,30.4a2.38,2.38,0,0,1-.91.16,2.57,2.57,0,0,1-.9-.16,1.84,1.84,0,0,1-.69-.47,1.87,1.87,0,0,1-.45-.71,2.57,2.57,0,0,1-.15-.9A2.47,2.47,0,0,1,32,27.4a1.78,1.78,0,0,1,.44-.71,1.94,1.94,0,0,1,.69-.46,2.64,2.64,0,0,1,1.81,0,2,2,0,0,1,.7.47,1.9,1.9,0,0,1,.44.71A2.59,2.59,0,0,1,36.24,28.32Zm-1.1,0a1.64,1.64,0,0,0-.3-1.05.94.94,0,0,0-.8-.38,1,1,0,0,0-.57.17,1.06,1.06,0,0,0-.38.49,2,2,0,0,0-.13.77,1.93,1.93,0,0,0,.13.75,1.08,1.08,0,0,0,.38.5,1,1,0,0,0,.57.17,1,1,0,0,0,.8-.38A1.63,1.63,0,0,0,35.14,28.32Z"/><path class="cls-4" d="M40.76,30.09A10.76,10.76,0,1,1,30,19.32,10.76,10.76,0,0,1,40.76,30.09Z"/></g></g></svg>