<svg xmlns="http://www.w3.org/2000/svg" xmlns:xlink="http://www.w3.org/1999/xlink" viewBox="0 0 60 60"><defs><style>.cls-1,.cls-3,.cls-5{fill:none;}.cls-1{stroke-linecap:round;stroke-linejoin:round;stroke:url(#New_Gradient_Swatch_12);}.cls-1,.cls-3{stroke-width:2px;}.cls-2{fill:url(#New_Gradient_Swatch_13);}.cls-3{stroke-linecap:square;stroke-miterlimit:10;stroke:url(#New_Gradient_Swatch_12-2);}.cls-4{fill:url(#New_Gradient_Swatch_13-2);}.cls-6{fill:gray;}.cls-7{fill:url(#New_Gradient_Swatch_13-3);}.cls-8{fill:url(#New_Gradient_Swatch_12-3);}</style><linearGradient id="New_Gradient_Swatch_12" x1="31.98" y1="45.35" x2="28.02" y2="42.57" gradientUnits="userSpaceOnUse"><stop offset="0" stop-color="#46f2ff"/><stop offset="1" stop-color="#5fc1ff"/></linearGradient><linearGradient id="New_Gradient_Swatch_13" x1="30" y1="43.96" x2="30" y2="43.96" gradientUnits="userSpaceOnUse"><stop offset="0" stop-color="#fff"/><stop offset="1" stop-color="#78d2f7"/></linearGradient><linearGradient id="New_Gradient_Swatch_12-2" x1="38.27" y1="52.51" x2="21.73" y2="40.93" xlink:href="#New_Gradient_Swatch_12"/><linearGradient id="New_Gradient_Swatch_13-2" x1="19.37" y1="46.72" x2="40.63" y2="46.72" xlink:href="#New_Gradient_Swatch_13"/><linearGradient id="New_Gradient_Swatch_13-3" x1="46.07" y1="44.68" x2="13.93" y2="12.55" xlink:href="#New_Gradient_Swatch_13"/><linearGradient id="New_Gradient_Swatch_12-3" x1="48.93" y1="41.87" x2="11.07" y2="15.36" xlink:href="#New_Gradient_Swatch_12"/></defs><title>12_tv_active</title><g id="Layer_2" data-name="Layer 2"><g id="Layer_2-2" data-name="Layer 2"><line class="cls-1" x1="30" y1="41.48" x2="30" y2="46.44"/><line class="cls-2" x1="30" y1="41.48" x2="30" y2="46.44"/><line class="cls-3" x1="40.63" y1="46.72" x2="19.37" y2="46.72"/><line class="cls-4" x1="40.63" y1="46.72" x2="19.37" y2="46.72"/><rect class="cls-5" width="60" height="60"/><path class="cls-6" d="M44.58,19.81V36.22H15.42V19.81H44.58m2-2H13.42V38.22H46.58V17.81Z"/><rect class="cls-7" x="10.94" y="15.55" width="38.12" height="26.14"/><path class="cls-8" d="M47.06,17.55V39.69H12.94V17.55H47.06m2-2H10.94V41.69H49.06V15.55Z"/></g></g></svg>