<svg xmlns="http://www.w3.org/2000/svg" xmlns:xlink="http://www.w3.org/1999/xlink" viewBox="0 0 60 60"><defs><style>.cls-1,.cls-2,.cls-3,.cls-4{stroke:gray;stroke-miterlimit:10;stroke-width:2px;}.cls-1{fill:url(#linear-gradient);}.cls-2{fill:url(#linear-gradient-2);}.cls-3{fill:url(#linear-gradient-3);}.cls-4{fill:url(#linear-gradient-4);}.cls-5{fill:#fff;}.cls-6{fill:#666;}.cls-7{fill:none;}</style><linearGradient id="linear-gradient" x1="25.58" y1="12.9" x2="36.82" y2="24.14" gradientUnits="userSpaceOnUse"><stop offset="0" stop-color="#fff"/><stop offset="1" stop-color="#207196"/></linearGradient><linearGradient id="linear-gradient-2" x1="23.31" y1="35.96" x2="34.55" y2="47.2" xlink:href="#linear-gradient"/><linearGradient id="linear-gradient-3" x1="35.53" y1="25.19" x2="47.53" y2="37.18" xlink:href="#linear-gradient"/><linearGradient id="linear-gradient-4" x1="12.47" y1="22.92" x2="24.47" y2="34.91" xlink:href="#linear-gradient"/></defs><title>15_vent_active</title><g id="Layer_2" data-name="Layer 2"><g id="Layer_2-2" data-name="Layer 2"><path class="cls-1" d="M31.66,28.78a.85.85,0,0,1-1.45.74c-2.38-2.45-5.72-6.78-6.14-10.41-.89-7.63,6.42-10.93,12-7.51a5.36,5.36,0,0,1,2.14,6.78C36.38,22.93,29.92,20.14,31.66,28.78Z"/><path class="cls-2" d="M28.47,31.32a.86.86,0,0,1,1.46-.74C32.3,33,35.64,37.36,36.07,41c.89,7.63-6.43,10.93-12,7.51A5.36,5.36,0,0,1,22,41.72C23.75,37.17,30.22,40,28.47,31.32Z"/><path class="cls-3" d="M31.27,31.65a.86.86,0,0,1-.74-1.46c2.45-2.38,6.78-5.71,10.41-6.14,7.63-.89,10.93,6.43,7.51,12a5.35,5.35,0,0,1-6.78,2.15C37.12,36.36,39.91,29.9,31.27,31.65Z"/><path class="cls-4" d="M28.73,28.46a.85.85,0,0,1,.74,1.45c-2.45,2.38-6.78,5.71-10.41,6.14-7.63.89-10.93-6.43-7.51-12a5.35,5.35,0,0,1,6.78-2.15C22.88,23.74,20.09,30.2,28.73,28.46Z"/><path class="cls-5" d="M30,33.22A3.22,3.22,0,1,1,33.22,30,3.23,3.23,0,0,1,30,33.22Z"/><path class="cls-6" d="M30,27.78A2.22,2.22,0,1,1,27.78,30,2.23,2.23,0,0,1,30,27.78m0-2A4.22,4.22,0,1,0,34.22,30,4.22,4.22,0,0,0,30,25.78Z"/><rect class="cls-7" width="60" height="60"/></g></g></svg>