<svg xmlns="http://www.w3.org/2000/svg" viewBox="0 0 60 60"><defs><style>.cls-1,.cls-4{fill:none;}.cls-1{stroke:#ccc;stroke-miterlimit:10;stroke-width:2px;}.cls-2{fill:#fff;}.cls-3{fill:#ccc;}</style></defs><title>15_vent_</title><g id="Layer_2" data-name="Layer 2"><g id="Layer_2-2" data-name="Layer 2"><path class="cls-1" d="M31.66,28.78a.85.85,0,0,1-1.45.74c-2.38-2.45-5.72-6.78-6.14-10.41-.89-7.63,6.42-10.93,12-7.51a5.36,5.36,0,0,1,2.14,6.78C36.38,22.93,29.92,20.14,31.66,28.78Z"/><path class="cls-1" d="M28.47,31.32a.86.86,0,0,1,1.46-.74C32.3,33,35.64,37.36,36.07,41c.89,7.63-6.43,10.93-12,7.51A5.36,5.36,0,0,1,22,41.72C23.75,37.17,30.22,40,28.47,31.32Z"/><path class="cls-1" d="M31.27,31.65a.86.86,0,0,1-.74-1.46c2.45-2.38,6.78-5.71,10.41-6.14,7.63-.89,10.93,6.43,7.51,12a5.35,5.35,0,0,1-6.78,2.15C37.12,36.36,39.91,29.9,31.27,31.65Z"/><path class="cls-1" d="M28.73,28.46a.85.85,0,0,1,.74,1.45c-2.45,2.38-6.78,5.71-10.41,6.14-7.63.89-10.93-6.43-7.51-12a5.35,5.35,0,0,1,6.78-2.15C22.88,23.74,20.09,30.2,28.73,28.46Z"/><path class="cls-2" d="M30,33.22A3.22,3.22,0,1,1,33.22,30,3.23,3.23,0,0,1,30,33.22Z"/><path class="cls-3" d="M30,27.78A2.22,2.22,0,1,1,27.78,30,2.23,2.23,0,0,1,30,27.78m0-2A4.22,4.22,0,1,0,34.22,30,4.22,4.22,0,0,0,30,25.78Z"/><rect class="cls-4" width="60" height="60"/></g></g></svg>