<svg xmlns="http://www.w3.org/2000/svg" xmlns:xlink="http://www.w3.org/1999/xlink" viewBox="0 0 60 88.18"><defs><style>.cls-1,.cls-3,.cls-6{fill:none;}.cls-2{clip-path:url(#clip-path);}.cls-3{stroke:#e6e6e6;stroke-width:2px;}.cls-3,.cls-6{stroke-miterlimit:10;}.cls-4{fill:gray;}.cls-5{fill:url(#New_Gradient_Swatch_7);}.cls-6{stroke:gray;}</style><clipPath id="clip-path"><rect class="cls-1" x="13.92" y="27.54" width="32.17" height="33.16"/></clipPath><linearGradient id="New_Gradient_Swatch_7" x1="14" y1="36.12" x2="30" y2="36.12" gradientUnits="userSpaceOnUse"><stop offset="0" stop-color="#fff"/><stop offset="1" stop-color="#ffe7b6"/></linearGradient></defs><title>01_wind_</title><g id="Layer_2" data-name="Layer 2"><g id="Layer_2-2" data-name="Layer 2"><g class="cls-2"><line class="cls-3" x1="45.96" y1="0.71" x2="12.72" y2="33.94"/><line class="cls-3" x1="45.96" y1="6.65" x2="12.72" y2="39.89"/><line class="cls-3" x1="45.96" y1="12.6" x2="12.72" y2="45.83"/><line class="cls-3" x1="45.96" y1="18.55" x2="12.72" y2="51.78"/><line class="cls-3" x1="45.96" y1="24.5" x2="12.72" y2="57.73"/><line class="cls-3" x1="45.96" y1="30.45" x2="12.72" y2="63.68"/><line class="cls-3" x1="45.96" y1="36.39" x2="12.72" y2="69.63"/><line class="cls-3" x1="45.96" y1="42.34" x2="12.72" y2="75.57"/><line class="cls-3" x1="45.96" y1="48.29" x2="12.72" y2="81.52"/><line class="cls-3" x1="45.96" y1="54.24" x2="12.72" y2="87.47"/></g><path class="cls-4" d="M45,29.12v30H15v-30H45m2-2H13v34H47v-34Z"/><rect class="cls-5" x="14" y="28.12" width="16" height="16"/><path class="cls-4" d="M29,29.12v14H15v-14H29m2-2H13v18H31v-18Z"/><rect class="cls-1" y="14.12" width="60" height="60"/><rect class="cls-4" x="11" y="24.02" width="38" height="6.19"/><path class="cls-4" d="M48,25v4.19H12V25H48m2-2H10v8.19H50V23Z"/><line class="cls-6" x1="49.63" y1="23.02" x2="49.63" y2="48.43"/><circle class="cls-4" cx="49.63" cy="47.87" r="1.38"/></g></g></svg>