<svg xmlns="http://www.w3.org/2000/svg" xmlns:xlink="http://www.w3.org/1999/xlink" viewBox="0 0 60 88.18"><defs><style>.cls-1,.cls-3,.cls-6{fill:none;}.cls-2{clip-path:url(#clip-path);}.cls-3{stroke:#e6e6e6;stroke-width:2px;}.cls-3,.cls-6{stroke-miterlimit:10;}.cls-4{fill:gray;}.cls-5{fill:url(#New_Gradient_Swatch_7);}.cls-6{stroke:gray;}</style><clipPath id="clip-path"><rect class="cls-1" x="13.92" y="28.64" width="32.17" height="32.06"/></clipPath><linearGradient id="New_Gradient_Swatch_7" x1="-488.12" y1="-463.67" x2="-466.22" y2="-463.67" gradientTransform="translate(-438.72 516.66) rotate(90)" gradientUnits="userSpaceOnUse"><stop offset="0" stop-color="#fff"/><stop offset="1" stop-color="#ffe7b6"/></linearGradient></defs><title>02_wind_</title><g id="Layer_2" data-name="Layer 2"><g id="Layer_2-2" data-name="Layer 2"><g class="cls-2"><line class="cls-3" x1="45.96" y1="0.71" x2="12.72" y2="33.94"/><line class="cls-3" x1="45.96" y1="6.65" x2="12.72" y2="39.89"/><line class="cls-3" x1="45.96" y1="12.6" x2="12.72" y2="45.83"/><line class="cls-3" x1="45.96" y1="18.55" x2="12.72" y2="51.78"/><line class="cls-3" x1="45.96" y1="24.5" x2="12.72" y2="57.73"/><line class="cls-3" x1="45.96" y1="30.45" x2="12.72" y2="63.68"/><line class="cls-3" x1="45.96" y1="36.39" x2="12.72" y2="69.63"/><line class="cls-3" x1="45.96" y1="42.34" x2="12.72" y2="75.57"/><line class="cls-3" x1="45.96" y1="48.29" x2="12.72" y2="81.52"/><line class="cls-3" x1="45.96" y1="54.24" x2="12.72" y2="87.47"/></g><path class="cls-4" d="M45,29.54v30H15v-30H45m2-2H13v34H47v-34Z"/><polygon class="cls-5" points="13.99 28.54 35.89 28.54 13.99 50.44 13.99 28.54"/><path class="cls-4" d="M33.48,29.54,15,48V29.54H33.48m4.83-2H13V52.85L38.31,27.54Z"/><path class="cls-4" d="M45,29.54v30H15v-30H45m2-2H13v34H47v-34Z"/><rect class="cls-1" y="14.55" width="60" height="60"/><line class="cls-6" x1="49.63" y1="22.44" x2="49.63" y2="48.86"/><circle class="cls-4" cx="49.63" cy="48.29" r="1.38"/><rect class="cls-4" x="11" y="23.44" width="38" height="6.19"/><path class="cls-4" d="M48,24.44v4.2H12v-4.2H48m2-2H10v8.2H50v-8.2Z"/></g></g></svg>