<svg xmlns="http://www.w3.org/2000/svg" xmlns:xlink="http://www.w3.org/1999/xlink" viewBox="0 0 30 30"><defs><style>.cls-1{fill:#fff;}.cls-2,.cls-4{fill:none;}.cls-2,.cls-3{stroke:#1a1a1a;stroke-linecap:round;stroke-linejoin:round;stroke-width:2px;}.cls-3{fill:url(#New_Gradient_Swatch_20);}</style><linearGradient id="New_Gradient_Swatch_20" x1="15" y1="13.1" x2="15" y2="29.28" gradientUnits="userSpaceOnUse"><stop offset="0" stop-color="#fff"/><stop offset="1" stop-color="#ffcb56"/></linearGradient></defs><title>home_active</title><g id="Layer_2" data-name="Layer 2"><g id="Layer_2-2" data-name="Layer 2"><g id="New_Symbol_5" data-name="New Symbol 5"><path class="cls-1" d="M2.11,13.54C2.24,13.37,15,2,15,2L28.19,13.54h-4l.19,13a1.49,1.49,0,0,1-1.49,1.52H18.68a1.49,1.49,0,0,1-1.49-1.49v-7H12.42l.17,7.08a1.5,1.5,0,0,1-1.49,1.44h-4a1.49,1.49,0,0,1-1.49-1.49v-13Z"/><path class="cls-2" d="M2.11,13.27,13.37,2.61a2.4,2.4,0,0,1,3.26,0L27.89,13.27"/><path class="cls-3" d="M24.39,14.24V25.79A2.25,2.25,0,0,1,22.15,28h-5V19.55H12.81V28h-5a2.25,2.25,0,0,1-2.24-2.24V14.24"/><rect class="cls-4" width="30" height="30"/></g></g></g></svg>