<svg xmlns="http://www.w3.org/2000/svg" xmlns:xlink="http://www.w3.org/1999/xlink" viewBox="0 0 32 32"><defs><style>.cls-1{stroke-linecap:round;stroke-linejoin:round;fill:url(#New_Gradient_Swatch_1);stroke:url(#linear-gradient);}.cls-2{fill:#2c98bc;}.cls-3{fill:none;}</style><linearGradient id="New_Gradient_Swatch_1" x1="19.05" y1="25.84" x2="5.32" y2="12.11" gradientUnits="userSpaceOnUse"><stop offset="0" stop-color="#fff"/><stop offset="1" stop-color="#78d2f7"/></linearGradient><linearGradient id="linear-gradient" x1="19.4" y1="26.19" x2="4.97" y2="11.76" gradientUnits="userSpaceOnUse"><stop offset="0" stop-color="#46f2ff"/><stop offset="1" stop-color="#5fc1ff"/></linearGradient></defs><title>hum_out</title><g id="Layer_2" data-name="Layer 2"><g id="Layer_2-2" data-name="Layer 2"><g id="New_Symbol_5" data-name="New Symbol 5"><path class="cls-1" d="M19.43,14.45l-.41,0A7.43,7.43,0,0,0,4.36,16.15c0,.11,0,.23,0,.34a3.54,3.54,0,0,0,.22,7.08H19.43a4.56,4.56,0,0,0,0-9.12Z"/><path class="cls-2" d="M12.06,15.42a1.74,1.74,0,0,1-.52,1.28A1.81,1.81,0,0,1,9,16.7a1.81,1.81,0,0,1,0-2.56,1.8,1.8,0,0,1,3.08,1.28Zm3.87-1.75-6.1,7.46H8.45l6.11-7.46Zm-4.67,1.75a1,1,0,0,0-.29-.71,1,1,0,0,0-1.41,0,1,1,0,0,0,.7,1.71,1,1,0,0,0,.71-.29A1,1,0,0,0,11.26,15.42Zm4.73,4a1.82,1.82,0,0,1-3.1,1.29,1.79,1.79,0,0,1-.53-1.29,1.81,1.81,0,0,1,3.09-1.28A1.74,1.74,0,0,1,16,19.41Zm-.82,0a1,1,0,0,0-.29-.7,1,1,0,1,0,0,1.41A1,1,0,0,0,15.17,19.41Z"/><rect class="cls-3" width="32" height="32"/></g></g></g></svg>