<svg xmlns="http://www.w3.org/2000/svg" xmlns:xlink="http://www.w3.org/1999/xlink" viewBox="0 0 32 32"><defs><style>.cls-1,.cls-5{fill:#fff;}.cls-1,.cls-2,.cls-3,.cls-4{stroke:gray;}.cls-1,.cls-2,.cls-3,.cls-4,.cls-5,.cls-6{stroke-linecap:round;stroke-linejoin:round;}.cls-2{fill:#fcc062;}.cls-3{fill:#a9ebff;}.cls-4,.cls-8{fill:none;}.cls-5{stroke:#fff;stroke-width:3px;}.cls-6{fill:url(#New_Gradient_Swatch_1);stroke:url(#New_Gradient_Swatch_12);}.cls-7{fill:#2c98bc;}</style><linearGradient id="New_Gradient_Swatch_1" x1="23.14" y1="21.69" x2="14.6" y2="13.14" gradientUnits="userSpaceOnUse"><stop offset="0" stop-color="#fff"/><stop offset="1" stop-color="#78d2f7"/></linearGradient><linearGradient id="New_Gradient_Swatch_12" x1="23.5" y1="22.04" x2="14.24" y2="12.79" gradientUnits="userSpaceOnUse"><stop offset="0" stop-color="#46f2ff"/><stop offset="1" stop-color="#5fc1ff"/></linearGradient></defs><title>hum_in</title><g id="Layer_2" data-name="Layer 2"><g id="Layer_2-2" data-name="Layer 2"><g id="New_Symbol_5" data-name="New Symbol 5"><rect class="cls-1" x="2.84" y="15.32" width="15.72" height="10.54"/><polyline class="cls-2" points="4.24 12.76 0.71 16.29 20.73 16.29 10.72 6.28 6.93 10.06"/><rect class="cls-3" x="5.39" y="18.25" width="5.21" height="5.21"/><polygon class="cls-4" points="20.73 16.29 10.72 6.28 6.8 10.2 6.8 7.5 4.43 7.5 4.43 12.57 0.71 16.29 20.73 16.29"/><path class="cls-5" d="M24.33,18.24a5.46,5.46,0,1,1-10.92,0c0-3,5.46-9.37,5.46-9.37S24.33,15.23,24.33,18.24Z"/><path class="cls-6" d="M24.33,18.24a5.46,5.46,0,1,1-10.92,0c0-3,5.46-9.37,5.46-9.37S24.33,15.23,24.33,18.24Z"/><polygon class="cls-7" points="21.59 15.28 17.41 20.33 16.14 20.33 20.32 15.28 21.59 15.28"/><path class="cls-7" d="M18.24,14.84a1.57,1.57,0,0,0-1.17-.5A1.69,1.69,0,0,0,15.39,16a1.64,1.64,0,0,0,.49,1.18,1.61,1.61,0,0,0,1.19.49,1.56,1.56,0,0,0,1.17-.49A1.63,1.63,0,0,0,18.72,16,1.61,1.61,0,0,0,18.24,14.84Zm-.52,1.83A.93.93,0,0,1,16.14,16a.86.86,0,0,1,.27-.65.93.93,0,0,1,1.31,0A.86.86,0,0,1,18,16,.89.89,0,0,1,17.72,16.67Z"/><path class="cls-7" d="M21.85,18.52a1.67,1.67,0,1,0-2.36,2.36,1.61,1.61,0,0,0,1.18.5,1.71,1.71,0,0,0,1.68-1.68A1.61,1.61,0,0,0,21.85,18.52Zm-.52,1.83a.93.93,0,0,1-1.31,0,.86.86,0,0,1-.27-.65.93.93,0,0,1,1.58-.65.92.92,0,0,1,.26.65A.89.89,0,0,1,21.33,20.35Z"/><rect class="cls-8" width="32" height="32"/></g></g></g></svg>