<svg xmlns="http://www.w3.org/2000/svg" viewBox="0 0 32.49 32"><defs><style>.cls-1{fill:#ccc;stroke-miterlimit:10;}.cls-1,.cls-3{stroke:gray;}.cls-2{fill:#fff;}.cls-3,.cls-4,.cls-5,.cls-7{fill:none;}.cls-3,.cls-4,.cls-5{stroke-linecap:round;stroke-linejoin:round;}.cls-4{stroke:#ccc;stroke-width:2px;}.cls-5{stroke:#f14950;}.cls-6{fill:#f14950;}</style></defs><title>press</title><g id="Layer_2" data-name="Layer 2"><g id="Layer_2-2" data-name="Layer 2"><g id="New_Symbol_5" data-name="New Symbol 5"><circle class="cls-1" cx="10.79" cy="17.09" r="8.86"/><path class="cls-2" d="M10.77,10.61A6.94,6.94,0,0,0,4,17.75H17.49A6.94,6.94,0,0,0,10.77,10.61Z"/><path class="cls-3" d="M21.21,17.64H17.37q0-.3,0-.6A6.61,6.61,0,0,0,4.18,17q0,.3,0,.6H.5"/><polyline class="cls-3" points="15.39 19.52 15.39 20.73 5.76 20.73 5.76 19.52"/><line class="cls-3" x1="14.23" y1="22.83" x2="9.99" y2="22.83"/><line class="cls-4" x1="7.52" y1="22.83" x2="6.94" y2="22.83"/><line class="cls-3" x1="7.52" y1="22.83" x2="6.94" y2="22.83"/><line class="cls-5" x1="10.58" y1="17.75" x2="7.81" y2="13.68"/><circle class="cls-6" cx="10.58" cy="17.75" r="1.34"/><rect class="cls-7" x="0.49" width="32" height="32"/></g></g></g></svg>