<svg xmlns="http://www.w3.org/2000/svg" xmlns:xlink="http://www.w3.org/1999/xlink" viewBox="0 0 32 32"><defs><style>.cls-1,.cls-2{fill:#fcc062;stroke:#fcc062;}.cls-1,.cls-2,.cls-3{stroke-linecap:round;stroke-linejoin:round;}.cls-2{stroke-width:0.5px;}.cls-3{fill:url(#New_Gradient_Swatch_1);stroke:url(#linear-gradient);}.cls-4{fill:#fff;}.cls-5{fill:#f14950;}.cls-6{fill:none;}</style><linearGradient id="New_Gradient_Swatch_1" x1="20.39" y1="26.13" x2="9.66" y2="15.4" gradientUnits="userSpaceOnUse"><stop offset="0" stop-color="#fff"/><stop offset="1" stop-color="#78d2f7"/></linearGradient><linearGradient id="linear-gradient" x1="20.74" y1="26.48" x2="9.31" y2="15.04" gradientUnits="userSpaceOnUse"><stop offset="0" stop-color="#46f2ff"/><stop offset="1" stop-color="#5fc1ff"/></linearGradient></defs><title>temp_out</title><g id="Layer_2" data-name="Layer 2"><g id="Layer_2-2" data-name="Layer 2"><g id="New_Symbol_5" data-name="New Symbol 5"><path class="cls-1" d="M17,16l-2.56-1.52a5.61,5.61,0,0,1,0,3Z"/><path class="cls-2" d="M8.86,10.2a5.79,5.79,0,0,1,1.51.2L8.86,7.84,7.34,10.4A5.81,5.81,0,0,1,8.86,10.2Z"/><path class="cls-2" d="M13.88,13.11l.74-2.88L11.74,11A5.78,5.78,0,0,1,13.88,13.11Z"/><path class="cls-2" d="M6,11l-2.88-.74.74,2.88A5.78,5.78,0,0,1,6,11Z"/><path class="cls-1" d="M8.86,21.8a5.81,5.81,0,0,1-1.52-.2l1.52,2.56,1.51-2.56A5.79,5.79,0,0,1,8.86,21.8Z"/><path class="cls-1" d="M11.74,21l2.88.74-.74-2.88A5.78,5.78,0,0,1,11.74,21Z"/><path class="cls-2" d="M3.83,18.89l-.74,2.88L6,21A5.78,5.78,0,0,1,3.83,18.89Z"/><path class="cls-2" d="M3.05,16a5.87,5.87,0,0,1,.21-1.52L.7,16l2.56,1.52A5.87,5.87,0,0,1,3.05,16Z"/><circle class="cls-1" cx="8.86" cy="16" r="3.89"/><path class="cls-3" d="M20.68,17.22l-.32,0A5.8,5.8,0,0,0,8.91,18.55c0,.09,0,.18,0,.27a2.77,2.77,0,0,0,.17,5.54H20.68a3.57,3.57,0,0,0,0-7.14Z"/><polygon class="cls-4" points="20.38 20.29 16.52 20.29 16.52 6.48 20.38 10.35 20.38 20.29"/><circle class="cls-4" cx="18.45" cy="20.14" r="3.28"/><rect class="cls-5" x="17.65" y="6.12" width="1.6" height="14.86" rx="0.8" ry="0.8"/><circle class="cls-5" cx="18.45" cy="20.14" r="1.93"/><rect class="cls-6" width="32" height="32"/></g></g></g></svg>