<svg xmlns="http://www.w3.org/2000/svg" viewBox="0 0 92.38 92.38"><defs><style>.cls-1{fill:#68bd45;}.cls-2{fill:none;}</style></defs><title>andr</title><g id="Layer_2" data-name="Layer 2"><g id="Layer_1-2" data-name="Layer 1"><path class="cls-1" d="M35.66,14.26l2.79,4.86a14.62,14.62,0,0,0-8.54,13H62.47a14.62,14.62,0,0,0-8.54-13l2.8-4.86a.3.3,0,0,0-.12-.4.31.31,0,0,0-.42.1l-2.84,4.9a17.84,17.84,0,0,0-14.32,0L36.19,14a.31.31,0,0,0-.41-.11.31.31,0,0,0-.12.41Zm2.79,9.41A1.56,1.56,0,0,1,40,25.22a1.55,1.55,0,0,1-3.1,0A1.56,1.56,0,0,1,38.45,23.67Zm15.48,0a1.55,1.55,0,0,1,1.55,1.55,1.55,1.55,0,0,1-3.1,0A1.56,1.56,0,0,1,53.93,23.67Z"/><path class="cls-1" d="M29.78,34V58.7a3.28,3.28,0,0,0,2.71,2.83h3.87V70a3.52,3.52,0,1,0,7,0V61.53H49V70a3.53,3.53,0,1,0,7,0V61.53h3.85A3.28,3.28,0,0,0,62.6,58.7V34Z"/><path class="cls-1" d="M24.38,33.48h0a3.71,3.71,0,0,1,3.51,3.87V52a3.71,3.71,0,0,1-3.51,3.87h0A3.71,3.71,0,0,1,20.87,52V37.35A3.71,3.71,0,0,1,24.38,33.48Z"/><path class="cls-1" d="M68,33.48h0a3.71,3.71,0,0,1,3.51,3.87V52A3.71,3.71,0,0,1,68,55.88h0A3.71,3.71,0,0,1,64.49,52V37.35A3.71,3.71,0,0,1,68,33.48Z"/><rect class="cls-2" width="92.38" height="92.38"/></g></g></svg>